<?xml version="1.0" encoding="UTF-8" standalone="no"?>
<svg width="100%" height="100%" viewBox="0 0 512 512" version="1.1" xmlns="http://www.w3.org/2000/svg" xml:space="preserve">
    <path d="M122.547,125.35l266.906,0c-2.765,-4.044 -5.146,-8.473 -8.141,-12.313l72.013,-71.987l-36.199,-36.199l-72.857,72.858c-5.912,-4.271 -12.094,-8.154 -18.509,-11.623c-43.544,-23.288 -95.976,-23.288 -139.52,0c-6.4,3.38 -12.493,7.348 -18.483,11.597l-72.858,-72.832l-36.198,36.199l72.013,71.987c-3.021,3.865 -5.376,8.269 -8.167,12.313Zm389.453,51.2l-512,0l0,51.2l59.059,0c-1.664,12.672 -2.739,25.524 -2.739,38.4c0,12.98 1.075,25.933 2.739,38.682l-59.059,0l0,51.2l70.477,-0c0.333,0.998 0.537,2.048 0.87,3.021c4.813,14.208 10.778,27.981 17.792,40.96c1.127,2.073 2.432,3.968 3.61,5.99l-59.648,59.648l36.198,36.199l54.016,-54.042c15.063,16.831 32.987,30.863 52.941,41.446c12.262,6.477 25.139,11.495 38.298,14.848c5.222,1.332 10.521,2.176 15.82,3.021l0,-151.373l51.2,0l0,151.399c5.322,-0.74 10.602,-1.748 15.821,-3.021c13.306,-3.423 26.161,-8.407 38.298,-14.848c11.904,-6.298 23.398,-14.08 34.125,-23.142c6.604,-5.581 12.8,-11.828 18.79,-18.33l54.042,54.042l36.198,-36.199l-59.648,-59.648c1.203,-2.048 2.509,-3.968 3.635,-6.041c6.989,-12.928 12.979,-26.701 17.767,-40.935c0.332,-0.998 0.537,-2.022 0.87,-3.021l70.528,0l0,-51.2l-59.085,0c1.664,-12.774 2.739,-25.702 2.739,-38.681c0,-12.877 -1.075,-25.728 -2.713,-38.4l59.059,-0l0,-51.175Z"/>
</svg>
