<?xml version="1.0" encoding="UTF-8" standalone="no"?>
<svg width="100%" height="100%" viewBox="0 0 512 512" version="1.1" xmlns="http://www.w3.org/2000/svg" xml:space="preserve">
    <path d="M0,230.4l128,-0l-0,51.2l-128,-0l0,-51.2Zm384,-0l128,-0l-0,51.2l-128,-0l-0,-51.2Zm-153.6,153.6l51.2,-0l-0,128l-51.2,-0l-0,-128Zm-0,-384l51.2,0l-0,128l-51.2,-0l-0,-128Zm-173.517,93.082l36.199,-36.199l90.521,90.522l-36.198,36.198l-90.522,-90.521Zm398.234,325.836l-36.199,36.199l-90.521,-90.522l36.198,-36.198l90.522,90.521Zm-307.712,-90.521l36.198,36.198l-90.521,90.522l-36.199,-36.199l90.522,-90.521Zm180.992,-181.018l90.521,-90.496l36.199,36.224l-90.522,90.496l-36.198,-36.224Z" style="fill-rule:nonzero;"/>
</svg>