<svg xmlns="http://www.w3.org/2000/svg" width="100%" height="100%" version="1.1" viewBox="0 0 512 512" xml:space="preserve"><path d="M278.64,25.9c-8.857,-16.742 -36.401,-16.742 -45.258,-0l-230.389,435.178c-1.965,3.696 -2.993,7.819 -2.993,12.006c0,14.029 11.544,25.573 25.573,25.573c0.017,-0 0.033,-0 0.05,-0l460.777,-0c0.017,-0 0.035,-0 0.052,-0c14.015,-0 25.548,-11.533 25.548,-25.548c0,-4.187 -1.029,-8.31 -2.997,-12.006l-230.363,-435.203Zm2.97,395.96l-51.198,0l0,-51.197l51.198,0l-0,51.197Zm-51.198,-102.394l0,-127.994l51.198,0l0.025,127.994l-51.223,-0Z"/></svg>